<svg xmlns="http://www.w3.org/2000/svg" width="1200" height="560" viewBox="0 0 1200 560"><style>text{font-family:'Microsoft YaHei','PingFang SC','Hiragino Sans GB','Microsoft JhengHei',sans-serif;fill:#334155;}.title{font-size:20px;font-weight:700;fill:#0F172A;}.subtitle{font-size:12px;font-weight:500;fill:#64748B;}.node-title{font-size:13px;font-weight:600;}.node-sub{font-size:10.5px;fill:#475569;}.label{font-size:11px;font-weight:500;fill:#64748B;}.caption{font-size:11px;fill:#64748B;}</style><defs><marker id="ar" markerWidth="10" markerHeight="10" refX="8" refY="3" orient="auto" markerUnits="strokeWidth"><path d="M0,0 L8,3 L0,6 Z" fill="#CBD5E1"/></marker><marker id="arP" markerWidth="10" markerHeight="10" refX="8" refY="3" orient="auto" markerUnits="strokeWidth"><path d="M0,0 L8,3 L0,6 Z" fill="#2563EB"/></marker><marker id="arA" markerWidth="10" markerHeight="10" refX="8" refY="3" orient="auto" markerUnits="strokeWidth"><path d="M0,0 L8,3 L0,6 Z" fill="#D97706"/></marker></defs><rect width="1200" height="560" fill="#FFFFFF"/><text x="600" y="36" text-anchor="middle" class="title">图 5-0  核心业务流程总图</text><g><rect x="440" y="210" width="320" height="100" rx="8" ry="8" fill="#2563EB" stroke="#2563EB" stroke-width="1.2"/><text x="600" y="258" text-anchor="middle" class="node-title" style="fill:#FFFFFF">业务中台</text><text x="600" y="274" text-anchor="middle" class="node-sub">受理 · 分派 · 审核 · 留痕</text></g><g><rect x="60" y="60" width="220" height="52" rx="8" ry="8" fill="#FFFFFF" stroke="#059669" stroke-width="1.2"/><text x="170" y="91" text-anchor="middle" class="node-title" style="fill:#334155">村民随手拍上报</text></g><line x1="280" y1="86" x2="440" y2="228" stroke="#CBD5E1" stroke-width="1.5" marker-end="url(#ar)"/><g><rect x="60" y="140" width="220" height="52" rx="8" ry="8" fill="#FFFFFF" stroke="#059669" stroke-width="1.2"/><text x="170" y="171" text-anchor="middle" class="node-title" style="fill:#334155">便民在线申请</text></g><line x1="280" y1="166" x2="440" y2="244" stroke="#CBD5E1" stroke-width="1.5" marker-end="url(#ar)"/><g><rect x="60" y="220" width="220" height="52" rx="8" ry="8" fill="#FFFFFF" stroke="#059669" stroke-width="1.2"/><text x="170" y="251" text-anchor="middle" class="node-title" style="fill:#334155">村民议事发起</text></g><line x1="280" y1="246" x2="440" y2="260" stroke="#CBD5E1" stroke-width="1.5" marker-end="url(#ar)"/><g><rect x="60" y="300" width="220" height="52" rx="8" ry="8" fill="#FFFFFF" stroke="#059669" stroke-width="1.2"/><text x="170" y="331" text-anchor="middle" class="node-title" style="fill:#334155">积分兑换请求</text></g><line x1="280" y1="326" x2="440" y2="276" stroke="#CBD5E1" stroke-width="1.5" marker-end="url(#ar)"/><g><rect x="60" y="380" width="220" height="52" rx="8" ry="8" fill="#FFFFFF" stroke="#059669" stroke-width="1.2"/><text x="170" y="411" text-anchor="middle" class="node-title" style="fill:#334155">干部巡查任务</text></g><line x1="280" y1="406" x2="440" y2="292" stroke="#CBD5E1" stroke-width="1.5" marker-end="url(#ar)"/><g><rect x="920" y="60" width="220" height="52" rx="8" ry="8" fill="#FFFFFF" stroke="#059669" stroke-width="1.2"/><text x="1030" y="91" text-anchor="middle" class="node-title" style="fill:#334155">处置/办理闭环</text></g><line x1="760" y1="228" x2="920" y2="86" stroke="#CBD5E1" stroke-width="1.5" marker-end="url(#ar)"/><g><rect x="920" y="140" width="220" height="52" rx="8" ry="8" fill="#FFFFFF" stroke="#059669" stroke-width="1.2"/><text x="1030" y="171" text-anchor="middle" class="node-title" style="fill:#334155">审核通过/驳回</text></g><line x1="760" y1="244" x2="920" y2="166" stroke="#CBD5E1" stroke-width="1.5" marker-end="url(#ar)"/><g><rect x="920" y="220" width="220" height="52" rx="8" ry="8" fill="#FFFFFF" stroke="#059669" stroke-width="1.2"/><text x="1030" y="251" text-anchor="middle" class="node-title" style="fill:#334155">办结反馈评价</text></g><line x1="760" y1="260" x2="920" y2="246" stroke="#CBD5E1" stroke-width="1.5" marker-end="url(#ar)"/><g><rect x="920" y="300" width="220" height="52" rx="8" ry="8" fill="#FFFFFF" stroke="#059669" stroke-width="1.2"/><text x="1030" y="331" text-anchor="middle" class="node-title" style="fill:#334155">积分发放/订单</text></g><line x1="760" y1="276" x2="920" y2="326" stroke="#CBD5E1" stroke-width="1.5" marker-end="url(#ar)"/><g><rect x="920" y="380" width="220" height="52" rx="8" ry="8" fill="#FFFFFF" stroke="#059669" stroke-width="1.2"/><text x="1030" y="411" text-anchor="middle" class="node-title" style="fill:#334155">数据沉淀看板</text></g><line x1="760" y1="292" x2="920" y2="406" stroke="#CBD5E1" stroke-width="1.5" marker-end="url(#ar)"/><g><rect x="440" y="50" width="320" height="58" rx="8" ry="8" fill="#D97706" stroke="#D97706" stroke-width="1.2"/><text x="600" y="77" text-anchor="middle" class="node-title" style="fill:#FFFFFF">乡村入驻开通</text><text x="600" y="93" text-anchor="middle" class="node-sub">申请 → 审核 → 配置 → 运营</text></g><line x1="600" y1="108" x2="600" y2="210" stroke="#CBD5E1" stroke-width="1.5" marker-end="url(#ar)"/><g><rect x="440" y="410" width="320" height="58" rx="8" ry="8" fill="#059669" stroke="#059669" stroke-width="1.2"/><text x="600" y="437" text-anchor="middle" class="node-title" style="fill:#FFFFFF">大屏 / 报表 / 决策</text><text x="600" y="453" text-anchor="middle" class="node-sub">数据驱动治理</text></g><line x1="600" y1="310" x2="600" y2="410" stroke="#CBD5E1" stroke-width="1.5" marker-end="url(#ar)"/><text x="600" y="510" font-size="11" fill="#64748B" text-anchor="middle" font-weight="600">数据闭环：接入 → 中台处理 → 输出反馈 → 数据沉淀</text></svg>