<svg xmlns="http://www.w3.org/2000/svg" width="1120" height="480" viewBox="0 0 1120 480"><style>text{font-family:'Microsoft YaHei','PingFang SC','Hiragino Sans GB','Microsoft JhengHei',sans-serif;fill:#334155;}.title{font-size:20px;font-weight:700;fill:#0F172A;}.subtitle{font-size:12px;font-weight:500;fill:#64748B;}.node-title{font-size:13px;font-weight:600;}.node-sub{font-size:10.5px;fill:#475569;}.label{font-size:11px;font-weight:500;fill:#64748B;}.caption{font-size:11px;fill:#64748B;}</style><defs><marker id="ar" markerWidth="10" markerHeight="10" refX="8" refY="3" orient="auto" markerUnits="strokeWidth"><path d="M0,0 L8,3 L0,6 Z" fill="#CBD5E1"/></marker><marker id="arP" markerWidth="10" markerHeight="10" refX="8" refY="3" orient="auto" markerUnits="strokeWidth"><path d="M0,0 L8,3 L0,6 Z" fill="#2563EB"/></marker><marker id="arA" markerWidth="10" markerHeight="10" refX="8" refY="3" orient="auto" markerUnits="strokeWidth"><path d="M0,0 L8,3 L0,6 Z" fill="#D97706"/></marker></defs><rect width="1120" height="480" fill="#FFFFFF"/><text x="560" y="36" text-anchor="middle" class="title">图 10-2  前端架构图</text><rect x="30" y="70" width="250" height="300" rx="10" ry="10" fill="#DBEAFE" stroke="#F1F5F9" stroke-width="1.0"/><rect x="30" y="70" width="5" height="300" rx="2.5" fill="#2563EB"/><text x="46" y="90" class="subtitle" fill="#2563EB">四端应用</text><text x="44" y="110" font-size="12" fill="#334155" text-anchor="middle" font-weight="500">• PC管理后台(Vue3)</text><text x="44" y="156" font-size="12" fill="#334155" text-anchor="middle" font-weight="500">• 干部端(H5/Vue)</text><text x="44" y="202" font-size="12" fill="#334155" text-anchor="middle" font-weight="500">• 村民端(H5/Vue)</text><text x="44" y="248" font-size="12" fill="#334155" text-anchor="middle" font-weight="500">• 数据大屏(ECharts)</text><text x="44" y="294" font-size="12" fill="#334155" text-anchor="middle" font-weight="500">• 组件规范库</text><line x1="280" y1="220" x2="300" y2="220" stroke="#CBD5E1" stroke-width="1.5" marker-end="url(#ar)"/><rect x="300" y="70" width="250" height="300" rx="10" ry="10" fill="#D1FAE5" stroke="#F1F5F9" stroke-width="1.0"/><rect x="300" y="70" width="5" height="300" rx="2.5" fill="#059669"/><text x="316" y="90" class="subtitle" fill="#059669">工程化与基础设施</text><text x="314" y="110" font-size="12" fill="#334155" text-anchor="middle" font-weight="500">• Vite构建</text><text x="314" y="156" font-size="12" fill="#334155" text-anchor="middle" font-weight="500">• VueRouter路由</text><text x="314" y="202" font-size="12" fill="#334155" text-anchor="middle" font-weight="500">• Pinia状态</text><text x="314" y="248" font-size="12" fill="#334155" text-anchor="middle" font-weight="500">• axios请求层</text><text x="314" y="294" font-size="12" fill="#334155" text-anchor="middle" font-weight="500">• 移动端适配(430px)</text><line x1="550" y1="220" x2="570" y2="220" stroke="#CBD5E1" stroke-width="1.5" marker-end="url(#ar)"/><rect x="570" y="70" width="250" height="300" rx="10" ry="10" fill="#FEF3C7" stroke="#F1F5F9" stroke-width="1.0"/><rect x="570" y="70" width="5" height="300" rx="2.5" fill="#D97706"/><text x="586" y="90" class="subtitle" fill="#D97706">UI 与体验层</text><text x="584" y="110" font-size="12" fill="#334155" text-anchor="middle" font-weight="500">• 共享组件库</text><text x="584" y="156" font-size="12" fill="#334155" text-anchor="middle" font-weight="500">• 统一设计令牌</text><text x="584" y="202" font-size="12" fill="#334155" text-anchor="middle" font-weight="500">• 千村千面引擎</text><text x="584" y="248" font-size="12" fill="#334155" text-anchor="middle" font-weight="500">• 表单/图表组件</text><text x="584" y="294" font-size="12" fill="#334155" text-anchor="middle" font-weight="500">• 主题与配色</text><line x1="820" y1="220" x2="840" y2="220" stroke="#CBD5E1" stroke-width="1.5" marker-end="url(#ar)"/><rect x="840" y="70" width="250" height="300" rx="10" ry="10" fill="#F1F5F9" stroke="#F1F5F9" stroke-width="1.0"/><rect x="840" y="70" width="5" height="300" rx="2.5" fill="#64748B"/><text x="856" y="90" class="subtitle" fill="#64748B">能力输出</text><text x="854" y="110" font-size="12" fill="#334155" text-anchor="middle" font-weight="500">• 扫码/拍照</text><text x="854" y="156" font-size="12" fill="#334155" text-anchor="middle" font-weight="500">• 消息推送</text><text x="854" y="202" font-size="12" fill="#334155" text-anchor="middle" font-weight="500">• 定位/地图</text><text x="854" y="248" font-size="12" fill="#334155" text-anchor="middle" font-weight="500">• 离线降级</text><g><rect x="30" y="390" width="1060" height="46" rx="8" ry="8" fill="#334155" stroke="#334155" stroke-width="1.2"/><text x="560" y="418" text-anchor="middle" class="node-title" style="fill:#FFFFFF">前端原则：组件化 · 配置化 · 一致性 · 移动优先 · 弱网可降级</text></g></svg>